<svg fill="none" viewBox="0 0 64 18">
  <defs/>
  <path fill="#141414" d="M15.176.545h-4.21v10.057h-.145L3.951.545H.322V18H4.54V7.926h.11L11.598 18h3.58V.545zm6.872 0h-4.22V18h4.22V.545zM45.018 18l1.151-3.665h6.026L53.345 18h4.534L51.99.545h-5.616L40.484 18h4.535zm2.157-6.87l1.934-6.187h.137l1.943 6.188h-4.014zM63.977.546H59.76V18h4.218V.545z"/>
  <path fill="#2C61F2" d="M24.449 15.102h8.429V18h4.031v-2.898h2.088v-3.324H36.91V.545H31.6l-7.15 11.268v3.29zm8.514-3.324h-4.321v-.136l4.185-6.63h.136v6.766z"/>
</svg>