<?xml version="1.0" encoding="utf-8"?>
<!-- Generator: Adobe Illustrator 17.1.0, SVG Export Plug-In . SVG Version: 6.00 Build 0)  -->
<!DOCTYPE svg PUBLIC "-//W3C//DTD SVG 1.1//EN" "http://www.w3.org/Graphics/SVG/1.1/DTD/svg11.dtd">
<svg version="1.1" id="Layer_1" xmlns="http://www.w3.org/2000/svg" xmlns:xlink="http://www.w3.org/1999/xlink" x="0px" y="0px"
	 viewBox="0 0 612 792" enable-background="new 0 0 612 792" xml:space="preserve">
<path fill="#6B6D6C" d="M241.4,404.2H239v-19.9h7.1c2.2,0,3.8,0.6,4.9,1.8c1,1.2,1.6,2.6,1.6,4.1c0,1.7-0.6,3.1-1.7,4.2
	c-1.1,1.1-2.6,1.7-4.5,1.7h-4.8V404.2z M241.4,394.1h4.6c1.2,0,2.1-0.4,2.8-1.1c0.7-0.7,1.1-1.6,1.1-2.8c0-1-0.3-1.9-1-2.7
	c-0.6-0.8-1.6-1.2-2.8-1.2h-4.8V394.1z"/>
<path fill="#6B6D6C" d="M257.8,384.3v2.6h-2.5v-2.6H257.8z M257.7,389.5v14.7h-2.3v-14.7H257.7z"/>
<path fill="#6B6D6C" d="M273.7,404.2h-2.1v-9.5c0-1.4-0.3-2.3-0.9-2.9c-0.6-0.6-1.3-0.8-2.2-0.8c-1.2,0-2.1,0.5-2.9,1.4
	c-0.8,0.9-1.2,2.2-1.2,3.7v8.1h-2.3v-14.7h2.1v2.7c1.2-2.1,2.7-3.1,4.7-3.1c1.1,0,2,0.3,2.8,0.9c0.8,0.6,1.3,1.2,1.6,1.9
	c0.3,0.7,0.4,2,0.4,3.8V404.2z"/>
<path fill="#6B6D6C" d="M290.2,387.2v1.8c-1,0-1.8,0.1-2.1,0.4c-0.4,0.2-0.6,0.7-0.7,1.3c0.9,1.1,1.4,2.3,1.4,3.6
	c0,1.3-0.5,2.5-1.5,3.5c-1,1-2.4,1.4-4.1,1.4c-0.4,0-0.7,0-1-0.1c-0.5-0.1-0.9-0.2-1-0.2c-0.3,0-0.6,0.1-0.9,0.4
	c-0.4,0.3-0.6,0.6-0.6,1c0,0.6,0.3,1,0.8,1.1c0.5,0.2,1.8,0.3,3.8,0.3c1.7,0,2.9,0.2,3.7,0.3c0.8,0.2,1.5,0.6,2,1.2s0.8,1.4,0.8,2.3
	c0,2.8-2.5,4.2-7.4,4.2c-2.3,0-4.1-0.4-5.1-1.1c-1.1-0.7-1.6-1.6-1.6-2.8c0-1.4,0.7-2.4,2.2-2.9c-1-0.6-1.4-1.4-1.4-2.4
	c0-1.1,0.7-2,2-2.6c-1.3-1-1.9-2.3-1.9-3.9c0-1.5,0.5-2.7,1.6-3.6c1.1-0.9,2.4-1.4,4-1.4c1.1,0,2.1,0.2,3,0.6c0.1-1,0.5-1.6,1-2
	c0.5-0.4,1.3-0.6,2.4-0.6C289.7,387.1,289.9,387.1,290.2,387.2z M280.4,403.6c-1.1,0.5-1.6,1.1-1.6,2c0,0.7,0.4,1.3,1.3,1.7
	c0.9,0.4,2,0.6,3.4,0.6c1.3,0,2.4-0.2,3.5-0.5c1-0.4,1.6-1,1.6-1.8c0-0.5-0.2-0.8-0.5-1.1c-0.3-0.3-0.7-0.5-1.3-0.6
	c-0.5-0.1-1.5-0.1-2.8-0.2C282.4,403.8,281.2,403.7,280.4,403.6z M283.2,397.4c1,0,1.8-0.3,2.4-0.9s0.9-1.4,0.9-2.3
	c0-1-0.3-1.8-1-2.4s-1.4-0.9-2.3-0.9c-0.9,0-1.6,0.3-2.3,0.9c-0.7,0.6-1,1.4-1,2.5c0,1,0.3,1.7,0.9,2.3
	C281.4,397.1,282.2,397.4,283.2,397.4z"/>
<g>
	<path fill="#DA7D36" d="M299.8,404.2H296v-16.8h-5.3v-3.1h14.4v3.1h-5.3V404.2z"/>
	<path fill="#DA7D36" d="M319.7,404.2h-3.3v-9.6c0-1-0.2-1.8-0.7-2.2s-1-0.6-1.6-0.6c-0.9,0-1.7,0.4-2.4,1.1c-0.6,0.7-1,2-1,3.7v7.6
		h-3.3v-19.9h3.3v7.8c0.8-2.1,2.3-3.2,4.3-3.2c3,0,4.5,1.7,4.5,5.2V404.2z"/>
	<path fill="#DA7D36" d="M327.1,387.8h-3.3v-3.5h3.3V387.8z M327.1,404.2h-3.3v-14.7h3.3V404.2z"/>
	<path fill="#DA7D36" d="M343.3,404.2H340V395c0-1-0.2-1.7-0.7-2.2c-0.4-0.5-1-0.7-1.6-0.7c-0.9,0-1.6,0.4-2.3,1.1
		c-0.7,0.8-1,1.9-1,3.4v7.6h-3.3v-14.7h3v3.4c1.1-2.5,2.5-3.7,4.5-3.7c1.3,0,2.4,0.4,3.3,1.2s1.4,2.3,1.4,4.3V404.2z"/>
	<path fill="#DA7D36" d="M360.8,386.7v2.6h-1c-0.4,0-0.8,0.1-1.2,0.2c-0.3,0.1-0.7,0.5-1,1c1.2,1,1.7,2,1.7,3.2
		c0,1.3-0.5,2.4-1.6,3.2c-1.1,0.9-2.5,1.3-4.3,1.3c-0.8,0-1.7-0.1-2.7-0.4c-0.7,0.3-1,0.8-1,1.4c0,0.4,0.2,0.7,0.5,1
		c0.3,0.3,0.8,0.5,1.5,0.5h4.4c1.5,0,2.7,0.4,3.5,1.2c0.9,0.8,1.3,1.7,1.3,2.9c0,1.4-0.6,2.5-1.9,3.5c-1.3,0.9-3.2,1.4-5.7,1.4
		c-4.8,0-7.1-1.3-7.1-4c0-1.3,0.7-2.3,2.1-3c-0.9-0.8-1.4-1.6-1.4-2.4c0-1.3,0.8-2.3,2.3-3.1c-1.4-0.8-2-2-2-3.4
		c0-1.2,0.5-2.3,1.5-3.1c1-0.9,2.5-1.3,4.6-1.3c0.9,0,1.9,0.1,2.8,0.3c0.4-1.9,1.6-2.8,3.5-2.8H360.8z M349.6,403.4
		c-0.5,0.4-0.7,0.9-0.7,1.3c0,0.7,0.4,1.3,1.2,1.8c0.8,0.5,2.1,0.8,3.8,0.8c2.6,0,3.8-0.7,3.8-2c0-0.5-0.2-0.9-0.7-1.1
		c-0.4-0.2-1-0.4-1.5-0.4H352C351.3,403.8,350.5,403.6,349.6,403.4z M353.2,396.1c1.8,0,2.7-0.9,2.7-2.6c0-0.7-0.2-1.2-0.7-1.6
		s-1.1-0.7-2-0.7c-0.9,0-1.6,0.2-2,0.7c-0.5,0.5-0.7,1-0.7,1.7c0,0.7,0.2,1.3,0.7,1.8C351.7,395.9,352.4,396.1,353.2,396.1z"/>
	<path fill="#DA7D36" d="M361.7,400.8l3.1-0.6c0.5,1.2,1.5,1.8,3.1,1.8c2.1,0,3.1-0.6,3.1-1.8c0-0.4-0.2-0.7-0.5-1s-0.7-0.4-1.1-0.5
		l-2.7-0.5c-3-0.6-4.5-2-4.5-4.4c0-1.3,0.5-2.4,1.4-3.3c0.9-0.9,2.3-1.4,4.2-1.4c3.1,0,5,1.1,5.7,3.4l-3,0.6
		c-0.3-1.1-1.2-1.7-2.7-1.7c-1.8,0-2.7,0.6-2.7,1.7c0,0.8,0.7,1.3,2.1,1.6l3.2,0.7c2.5,0.5,3.7,1.9,3.7,4.2c0,1.6-0.6,2.8-1.9,3.6
		s-2.8,1.2-4.5,1.2c-1.5,0-2.8-0.3-4-0.9C362.8,403,362.1,402.1,361.7,400.8z"/>
</g>
</svg>
